<svg xmlns="http://www.w3.org/2000/svg" viewBox="0 0 512 512" fill="currentColor">
	<g data-name="Smart Phone 01">
		<path d="M240.409 341.585h31.187v13.444h-31.187zM205.337 154.798h101.325v169.655H205.337z" />
		<path
			d="M256 61.277c-107.32 0-194.324 87.005-194.324 194.32S148.68 449.923 256 449.923c107.317 0 194.325-87.01 194.325-194.325S363.316 61.278 256 61.278zm74.016 281.84a28.42 28.42 0 0 1-28.425 28.42H210.41a28.416 28.416 0 0 1-28.415-28.42V161.36a28.42 28.42 0 0 1 28.415-28.42h91.182a28.424 28.424 0 0 1 28.424 28.42z" />
	</g>
</svg>
